<svg width="32" height="32" viewBox="0 0 32 32" fill="none" xmlns="http://www.w3.org/2000/svg">
<path d="M29.8787 9.20006L30.8156 6.7858L30.777 6.63129L21.5435 9.06486C22.5287 7.63562 22.1906 6.49609 22.1906 6.49609C22.1906 6.49609 19.2448 8.37921 17.0137 8.33093C14.7826 8.28264 14.0679 7.6839 10.6488 8.77514C7.22976 9.86639 6.26391 13.2077 5.2691 13.932C4.28395 14.6466 1.18359 17.0319 1.18359 17.0319L3.98453 16.1337C3.98453 16.1337 3.19254 16.887 1.56028 19.0791V19.0888C1.82104 19.4558 2.9704 20.9719 4.11009 20.6436C4.23565 20.605 4.38053 20.5374 4.54472 20.4601C5.05662 20.7499 5.74237 21.0299 6.48606 21.1072C6.48606 21.1072 5.98382 20.5278 5.55886 19.8517L5.90656 19.6296L5.84861 19.6683L6.92069 20.0545L6.80479 19.0502H6.81444L7.85756 19.4365L7.732 18.519L8.12799 18.326L9.21939 14.1927L13.7395 11.1025L13.3822 12.0102C12.4647 14.2604 10.7454 14.7915 10.7454 14.7915L10.0307 15.0716C9.48982 15.6992 9.26768 15.8537 9.08417 17.9782C9.5188 17.8624 9.92446 17.8431 10.3011 17.9396C12.2328 18.4611 12.8992 20.7885 12.3777 21.4355C12.2522 21.59 11.9431 21.8701 11.5471 22.1888H10.7647L10.7551 22.8261L10.6778 22.8937H9.87616L9.86651 23.5118L9.65401 23.6662C8.91032 23.6855 7.95414 23.0289 7.95414 23.0289C7.9638 23.6276 8.45637 24.5451 8.45637 24.5451L8.54331 24.4967L8.46604 24.5547C8.46604 24.5547 10.475 25.8873 11.7403 25.3949C12.8606 24.9506 15.7678 22.662 18.279 21.5804L25.8705 19.5717L26.875 16.9836L21.0896 18.5094V16.1725L27.8795 14.3859L28.8839 11.7881L21.0896 13.8451V11.5177L29.8787 9.20006ZM16.0961 14.1348L17.9023 13.6616L17.9216 13.7485L17.3614 15.2067L15.4974 15.6992L16.0961 14.1348ZM16.7144 17.254L14.8503 17.7465L15.4587 16.1821L17.2552 15.7089L17.2842 15.7958L16.7144 17.254ZM19.1483 16.7326L17.2842 17.2251L17.8926 15.6606L19.6891 15.1874L19.7181 15.2743L19.1483 16.7326Z" fill="white"/>
</svg>
